<?xml version="1.0" encoding="utf-8"?>
<svg xmlns="http://www.w3.org/2000/svg" viewBox="0 0 156.9 161.7">
  <g id="svg4" transform="matrix(0.796322, 0, 0, 0.820583, -253.285614, -15.741616)" style="">
    <text id="text2" style="dominant-baseline: middle; font-size: 22.2px; font-weight: 700; text-anchor: middle; white-space: pre;" x="377.777" y="33.341">Magic 8ball</text>
    <text id="text2" style="dominant-baseline: middle; font-size: 20px; font-weight: 700; white-space: pre; text-anchor: middle;" transform="matrix(1.141076, 0, 0, 1.141076, 367.576019, -110.495506)"><tspan x="95.9805" y="130.121">Viktor</tspan><tspan x="95.9805" dy="1em">​</tspan><tspan> Sergii </tspan><tspan x="95.9805" dy="1em">​</tspan><tspan>Andrii</tspan></text>
    <text id="text2-3" style="dominant-baseline: middle; font-size: 8.6px; line-height: 13.7597px; text-anchor: middle; white-space: pre;" x="365.737" y="211.858">#DATE#</text>
    <text id="text2-3-5" style="dominant-baseline: middle; font-size: 8.6px; line-height: 13.7597px; text-anchor: middle; white-space: pre;" x="468.548" y="212.22">#HASH#</text>
    <text id="text2-3-5-3" style="dominant-baseline: middle; font-size: 8.6px; line-height: 13.7597px; text-anchor: middle; white-space: pre;" x="414.639" y="200.75">#REPO#</text>
    <g transform="matrix(0.798265, 0, 0, 0.837105, 317.768372, 148.507355)" style="">
      <path d="M81.4623 3.93445H79.0135L76.0799 11.7896L73.1208 3.93445H70.6465V13.6892H72.2026V5.78271L75.1616 13.6892H76.9472L79.9063 5.78271V13.6892H81.4623V3.93445Z"/>
      <path d="M84.166 4.90991H85.8495V3.36969H84.166V4.90991ZM84.2425 13.6892H85.7731V5.98806H84.2425V13.6892Z"/>
      <path d="M92.4313 5.85974C91.2834 5.85974 90.3141 6.37314 89.7273 7.19459L89.6254 5.98809H88.2988V13.6892H89.8294V9.2739C89.8294 8.04172 90.7987 7.16892 91.9976 7.16892C93.0435 7.16892 93.6813 7.91336 93.6813 9.22256V13.6892H95.2118V8.81183C95.2118 7.04058 94.0639 5.85974 92.4313 5.85974Z"/>
      <path d="M97.5312 4.90991H99.2149V3.36969H97.5312V4.90991ZM97.6077 13.6892H99.1383V5.98806H97.6077V13.6892Z"/>
      <path d="M104.166 13.8175C106.079 13.8175 107.278 12.9191 107.278 11.5072C107.278 10.3007 106.487 9.65894 104.395 9.11987C103.094 8.78615 102.686 8.52945 102.686 8.04172C102.686 7.50263 103.273 7.16892 104.14 7.16892C104.956 7.16892 105.645 7.45129 106.257 7.96471L107.125 6.80955C106.283 6.19346 105.288 5.85974 104.217 5.85974C102.406 5.85974 101.207 6.7582 101.207 8.14439C101.207 9.32523 101.997 9.96699 103.987 10.4804C105.39 10.8141 105.798 11.0965 105.798 11.5842C105.798 12.1746 105.186 12.4827 104.217 12.4827C103.196 12.4827 102.354 12.149 101.717 11.5329L100.875 12.6367C101.717 13.4068 102.865 13.8175 104.166 13.8175Z"/>
      <path d="M113.322 7.29726V5.98807H110.975V3.93445H109.649L109.445 5.98807H107.939V7.29726H109.445V11.6612C109.445 13.0731 110.261 13.8175 111.766 13.8175C112.276 13.8175 112.812 13.7662 113.322 13.6378V12.226C112.812 12.3543 112.48 12.38 112.072 12.38C111.332 12.38 110.975 12.149 110.975 11.3532V7.29726H113.322Z"/>
      <path d="M119.242 5.85974C118.094 5.85974 117.125 6.39882 116.563 7.22026L116.461 5.98809H115.135V13.6892H116.665V9.37657C116.665 8.14439 117.584 7.34862 118.808 7.34862C119.14 7.34862 119.497 7.37429 119.828 7.39996V5.93674C119.624 5.88541 119.446 5.85974 119.242 5.85974Z"/>
      <path d="M126.637 5.9881L124.673 12.3544H124.061L121.842 5.9881H120.158L122.633 12.3544H121.536C121.026 12.8678 120.77 13.4582 120.77 14.1513C120.77 15.5119 121.638 16.3847 122.913 16.3847C124.214 16.3847 125.081 15.5375 125.719 13.5865L128.27 5.9881H126.637ZM122.964 15.1011C122.454 15.1011 122.097 14.7417 122.097 14.2026C122.097 13.9716 122.148 13.7662 122.275 13.5865H124.189L124.036 14.0486C123.806 14.7161 123.423 15.1011 122.964 15.1011Z"/>
      <path d="M73.7055 33.5323C76.0013 33.5323 77.5828 31.9152 77.5828 29.5535C77.5828 27.1405 76.0522 25.5746 73.7055 25.5746C71.4097 25.5746 69.8281 27.1918 69.8281 29.5535C69.8281 31.9666 71.3586 33.5323 73.7055 33.5323ZM73.7055 32.2233C72.3025 32.2233 71.3842 31.1708 71.3842 29.5535C71.3842 27.9363 72.3025 26.8838 73.7055 26.8838C75.1085 26.8838 76.0267 27.9363 76.0267 29.5535C76.0267 31.1708 75.1085 32.2233 73.7055 32.2233Z"/>
      <path d="M82.3272 24.2653C82.8884 24.2653 83.3476 24.445 83.7557 24.7531L84.4699 23.598C83.8578 23.1872 83.169 22.9561 82.3782 22.9561C80.8477 22.9561 79.9038 23.8033 79.9038 25.1638V25.7028H78.3223V27.012H79.9038V33.404H81.4344V27.012H83.6281V25.7028H81.4344V25.1895C81.4344 24.6247 81.766 24.2653 82.3272 24.2653Z"/>
      <path d="M93.0145 23.6494H89.4688V33.4041H93.0145C96.0245 33.4041 97.8102 31.4018 97.8102 28.5268C97.8102 25.5746 96.1011 23.6494 93.0145 23.6494ZM93.0145 31.9922H91.0758V25.0612H93.0145C94.9786 25.0612 96.1521 26.3961 96.1521 28.5268C96.1521 30.6574 94.9786 31.9922 93.0145 31.9922Z"/>
      <path d="M99.7754 24.6247H101.459V23.0846H99.7754V24.6247ZM99.8519 33.404H101.382V25.7029H99.8519V33.404Z"/>
      <path d="M109.419 25.7029L109.317 26.8068C108.73 26.0366 107.812 25.5746 106.689 25.5746C104.725 25.5746 103.348 27.0891 103.348 29.3225C103.348 31.5814 104.674 33.0703 106.689 33.0703C107.786 33.0703 108.679 32.6083 109.291 31.8381V32.5826C109.291 33.8148 108.679 34.7903 106.97 34.7903C106.001 34.7903 105.312 34.5592 104.7 33.9175L103.883 34.9956C104.572 35.6887 105.592 36.0995 106.995 36.0995C109.342 36.0995 110.72 34.6619 110.72 32.6083L110.745 25.7029H109.419ZM107.098 31.8125C105.771 31.8125 104.904 30.8627 104.904 29.3481C104.904 27.8593 105.771 26.8838 107.098 26.8838C108.449 26.8838 109.317 27.8593 109.317 29.3481C109.317 30.8627 108.449 31.8125 107.098 31.8125Z"/>
      <path d="M113.195 24.6247H114.879V23.0846H113.195V24.6247ZM113.272 33.404H114.802V25.7029H113.272V33.404Z"/>
      <path d="M121.841 27.0121V25.7029H119.495V23.6494H118.168L117.964 25.7029H116.459V27.0121H117.964V31.3762C117.964 32.788 118.78 33.5324 120.285 33.5324C120.796 33.5324 121.331 33.4811 121.841 33.3527V31.9408C121.331 32.0693 121 32.0949 120.591 32.0949C119.852 32.0949 119.495 31.8638 119.495 31.068V27.0121H121.841Z"/>
      <path d="M129.7 32.0692C129.368 32.0692 129.215 31.9152 129.215 31.5814V28.116C129.215 26.5244 128.093 25.5746 126.256 25.5746C124.93 25.5746 123.833 26.0366 122.94 26.8838L123.884 27.8849C124.496 27.2432 125.313 26.8582 126.18 26.8582C127.149 26.8582 127.787 27.2688 127.787 27.8849C127.787 28.4753 127.226 28.578 126.078 28.7321C124.598 28.963 122.787 29.3738 122.787 31.2734C122.787 32.6083 123.782 33.5323 125.287 33.5323C126.409 33.5323 127.43 33.019 127.965 32.2233C128.067 33.1217 128.501 33.4554 129.445 33.4554C129.7 33.4554 129.904 33.4297 129.981 33.404V32.0692H129.7ZM125.542 32.2745C124.751 32.2745 124.292 31.8895 124.292 31.1708C124.292 30.1695 125.287 30.0155 126.256 29.8616C126.996 29.7331 127.455 29.6561 127.736 29.4764V30.4777C127.736 31.4531 126.716 32.2745 125.542 32.2745Z"/>
      <path d="M131.688 33.404H133.218V23.1358H131.688V33.404Z"/>
      <path d="M147.273 23.6494H138.754V25.1382H142.198V33.4041H143.83V25.1382H147.273V23.6494Z"/>
      <path d="M151.563 25.5746C150.415 25.5746 149.445 26.1136 148.884 26.935L148.782 25.7029H147.455V33.404H148.986V29.0914C148.986 27.8592 149.904 27.0635 151.129 27.0635C151.46 27.0635 151.818 27.0891 152.149 27.1147V25.6516C151.944 25.6002 151.767 25.5746 151.563 25.5746Z"/>
      <path d="M159.545 32.0692C159.213 32.0692 159.059 31.9152 159.059 31.5814V28.116C159.059 26.5244 157.937 25.5746 156.101 25.5746C154.774 25.5746 153.677 26.0366 152.784 26.8838L153.728 27.8849C154.34 27.2432 155.157 26.8582 156.025 26.8582C156.993 26.8582 157.631 27.2688 157.631 27.8849C157.631 28.4753 157.07 28.578 155.922 28.7321C154.443 28.963 152.631 29.3738 152.631 31.2734C152.631 32.6083 153.626 33.5323 155.132 33.5323C156.254 33.5323 157.274 33.019 157.81 32.2233C157.912 33.1217 158.345 33.4554 159.289 33.4554C159.545 33.4554 159.748 33.4297 159.825 33.404V32.0692H159.545ZM155.387 32.2745C154.595 32.2745 154.136 31.8895 154.136 31.1708C154.136 30.1695 155.132 30.0155 156.101 29.8616C156.84 29.7331 157.299 29.6561 157.581 29.4764V30.4777C157.581 31.4531 156.56 32.2745 155.387 32.2745Z"/>
      <path d="M165.664 25.5746C164.517 25.5746 163.548 26.088 162.961 26.9094L162.858 25.7029H161.531V33.404H163.062V28.9888C163.062 27.7566 164.032 26.8838 165.231 26.8838C166.277 26.8838 166.915 27.6282 166.915 28.9374V33.404H168.446V28.5267C168.446 26.7554 167.296 25.5746 165.664 25.5746Z"/>
      <path d="M173.219 33.5323C175.132 33.5323 176.331 32.6339 176.331 31.222C176.331 30.0155 175.539 29.3738 173.448 28.8347C172.147 28.501 171.739 28.2443 171.739 27.7566C171.739 27.2175 172.326 26.8838 173.193 26.8838C174.009 26.8838 174.699 27.1661 175.31 27.6796L176.177 26.5244C175.335 25.9083 174.341 25.5746 173.269 25.5746C171.458 25.5746 170.26 26.473 170.26 27.8592C170.26 29.04 171.05 29.6819 173.04 30.1952C174.442 30.5289 174.851 30.8113 174.851 31.2991C174.851 31.8895 174.24 32.1975 173.269 32.1975C172.25 32.1975 171.408 31.8638 170.77 31.2477L169.928 32.3516C170.77 33.1217 171.918 33.5323 173.219 33.5323Z"/>
      <path d="M181.023 24.2653C181.584 24.2653 182.043 24.445 182.45 24.7531L183.166 23.598C182.553 23.1872 181.865 22.9561 181.073 22.9561C179.542 22.9561 178.599 23.8033 178.599 25.1638V25.7028H177.018V27.012H178.599V33.404H180.13V27.012H182.324V25.7028H180.13V25.1895C180.13 24.6247 180.461 24.2653 181.023 24.2653Z"/>
      <path d="M186.763 33.5323C189.058 33.5323 190.64 31.9152 190.64 29.5535C190.64 27.1405 189.109 25.5746 186.763 25.5746C184.466 25.5746 182.885 27.1918 182.885 29.5535C182.885 31.9666 184.415 33.5323 186.763 33.5323ZM186.763 32.2233C185.359 32.2233 184.441 31.1708 184.441 29.5535C184.441 27.9363 185.359 26.8838 186.763 26.8838C188.166 26.8838 189.084 27.9363 189.084 29.5535C189.084 31.1708 188.166 32.2233 186.763 32.2233Z"/>
      <path d="M196.582 25.5746C195.435 25.5746 194.464 26.1136 193.904 26.935L193.801 25.7029H192.475V33.404H194.005V29.0914C194.005 27.8592 194.923 27.0635 196.149 27.0635C196.48 27.0635 196.837 27.0891 197.17 27.1147V25.6516C196.965 25.6002 196.787 25.5746 196.582 25.5746Z"/>
      <path d="M207.783 25.5746C206.584 25.5746 205.589 26.165 205.053 27.0635C204.62 26.1393 203.778 25.5746 202.63 25.5746C201.508 25.5746 200.589 26.0624 200.053 26.8582L199.952 25.7029H198.625V33.404H200.156V28.9888C200.156 27.7566 201.023 26.8838 202.196 26.8838C203.268 26.8838 203.803 27.6282 203.803 28.9374V33.404H205.334V28.9888C205.334 27.7566 206.201 26.8838 207.374 26.8838C208.42 26.8838 208.982 27.6282 208.982 28.9374V33.404H210.512V28.5267C210.512 26.7554 209.441 25.5746 207.783 25.5746Z"/>
      <path d="M219.007 32.0692C218.674 32.0692 218.521 31.9152 218.521 31.5814V28.116C218.521 26.5244 217.398 25.5746 215.562 25.5746C214.236 25.5746 213.139 26.0366 212.246 26.8838L213.189 27.8849C213.802 27.2432 214.619 26.8582 215.486 26.8582C216.455 26.8582 217.093 27.2688 217.093 27.8849C217.093 28.4753 216.531 28.578 215.383 28.7321C213.905 28.963 212.094 29.3738 212.094 31.2734C212.094 32.6083 213.088 33.5323 214.593 33.5323C215.716 33.5323 216.735 33.019 217.272 32.2233C217.373 33.1217 217.807 33.4554 218.75 33.4554C219.007 33.4554 219.211 33.4297 219.287 33.404V32.0692H219.007ZM214.848 32.2745C214.057 32.2745 213.598 31.8895 213.598 31.1708C213.598 30.1695 214.593 30.0155 215.562 29.8616C216.301 29.7331 216.762 29.6561 217.042 29.4764V30.4777C217.042 31.4531 216.021 32.2745 214.848 32.2745Z"/>
      <path d="M225.357 27.0121V25.7029H223.011V23.6494H221.684L221.48 25.7029H219.975V27.0121H221.48V31.3762C221.48 32.788 222.295 33.5324 223.801 33.5324C224.31 33.5324 224.847 33.4811 225.357 33.3527V31.9408C224.847 32.0693 224.515 32.0949 224.108 32.0949C223.367 32.0949 223.011 31.8638 223.011 31.068V27.0121H225.357Z"/>
      <path d="M227.217 24.6247H228.901V23.0846H227.217V24.6247ZM227.294 33.404H228.825V25.7029H227.294V33.404Z"/>
      <path d="M234.668 33.5323C236.963 33.5323 238.545 31.9152 238.545 29.5535C238.545 27.1405 237.015 25.5746 234.668 25.5746C232.372 25.5746 230.791 27.1918 230.791 29.5535C230.791 31.9666 232.32 33.5323 234.668 33.5323ZM234.668 32.2233C233.265 32.2233 232.347 31.1708 232.347 29.5535C232.347 27.9363 233.265 26.8838 234.668 26.8838C236.07 26.8838 236.989 27.9363 236.989 29.5535C236.989 31.1708 236.07 32.2233 234.668 32.2233Z"/>
      <path d="M244.514 25.5746C243.367 25.5746 242.398 26.088 241.811 26.9094L241.709 25.7029H240.383V33.404H241.912V28.9888C241.912 27.7566 242.882 26.8838 244.081 26.8838C245.127 26.8838 245.765 27.6282 245.765 28.9374V33.404H247.296V28.5267C247.296 26.7554 246.148 25.5746 244.514 25.5746Z"/>
      <path d="M73.7055 53.2472C76.0013 53.2472 77.5828 51.63 77.5828 49.2683C77.5828 46.8553 76.0522 45.2894 73.7055 45.2894C71.4097 45.2894 69.8281 46.9066 69.8281 49.2683C69.8281 51.6814 71.3586 53.2472 73.7055 53.2472ZM73.7055 51.9381C72.3025 51.9381 71.3842 50.8856 71.3842 49.2683C71.3842 47.6511 72.3025 46.5986 73.7055 46.5986C75.1085 46.5986 76.0267 47.6511 76.0267 49.2683C76.0267 50.8856 75.1085 51.9381 73.7055 51.9381Z"/>
      <path d="M82.3272 43.9802C82.8884 43.9802 83.3476 44.1599 83.7557 44.468L84.4699 43.3128C83.8578 42.902 83.169 42.671 82.3782 42.671C80.8477 42.671 79.9038 43.5181 79.9038 44.8786V45.4177H78.3223V46.7269H79.9038V53.1188H81.4344V46.7269H83.6281V45.4177H81.4344V44.9044C81.4344 44.3395 81.766 43.9802 82.3272 43.9802Z"/>
      <path d="M93.4251 53.2472C95.9251 53.2472 97.5067 51.6814 97.5067 49.2683V43.3641H95.8996V49.2427C95.8996 50.8342 94.9557 51.8097 93.4251 51.8097C91.8947 51.8097 90.9508 50.8342 90.9508 49.2427V43.3641H89.3438V49.2683C89.3438 51.6814 90.9253 53.2472 93.4251 53.2472Z"/>
      <path d="M106.409 51.7584C106.179 51.7584 106.026 51.6044 106.026 51.3733V48.5496H104.623L106.562 45.4177H104.929L103.118 48.4725H101.562V42.8507H100.031V53.1189H101.562V49.8844H104.521V51.707C104.521 52.6311 105.057 53.1189 106 53.1189H106.689V51.7584H106.409Z"/>
      <path d="M112.582 45.2894C111.434 45.2894 110.464 45.8285 109.903 46.6499L109.801 45.4177H108.475V53.1189H110.005V48.8063C110.005 47.5741 110.923 46.7783 112.148 46.7783C112.48 46.7783 112.837 46.804 113.168 46.8296V45.3665C112.964 45.3151 112.786 45.2894 112.582 45.2894Z"/>
      <path d="M120.567 51.7841C120.236 51.7841 120.083 51.63 120.083 51.2963V47.8308C120.083 46.2393 118.96 45.2894 117.124 45.2894C115.797 45.2894 114.7 45.7515 113.807 46.5986L114.751 47.5997C115.363 46.958 116.18 46.573 117.047 46.573C118.016 46.573 118.654 46.9836 118.654 47.5997C118.654 48.1902 118.093 48.2928 116.945 48.4469C115.465 48.6778 113.654 49.0886 113.654 50.9883C113.654 52.3231 114.649 53.2472 116.154 53.2472C117.277 53.2472 118.297 52.7339 118.833 51.9381C118.935 52.8365 119.368 53.1703 120.312 53.1703C120.567 53.1703 120.771 53.1445 120.848 53.1189V51.7841H120.567ZM116.409 51.9894C115.618 51.9894 115.159 51.6044 115.159 50.8856C115.159 49.8844 116.154 49.7303 117.124 49.5764C117.863 49.448 118.322 49.371 118.603 49.1913V50.1925C118.603 51.168 117.583 51.9894 116.409 51.9894Z"/>
      <path d="M122.605 44.3396H124.289V42.7994H122.605V44.3396ZM122.682 53.1189H124.213V45.4177H122.682V53.1189Z"/>
      <path d="M130.873 45.2894C129.725 45.2894 128.755 45.8029 128.169 46.6243L128.067 45.4177H126.74V53.1189H128.271V48.7036C128.271 47.4714 129.24 46.5986 130.439 46.5986C131.485 46.5986 132.123 47.343 132.123 48.6522V53.1189H133.653V48.2416C133.653 46.4702 132.505 45.2894 130.873 45.2894Z"/>
      <path d="M136.894 49.7561H142.786C142.837 49.5764 142.837 49.448 142.837 49.2683C142.837 46.8553 141.383 45.2894 139.139 45.2894C136.894 45.2894 135.363 46.9066 135.363 49.2683C135.363 51.553 136.741 53.2472 139.266 53.2472C140.873 53.2472 141.944 52.6311 142.582 51.8611L141.537 50.9369C141.103 51.5017 140.389 51.9381 139.266 51.9381C137.914 51.9381 137.072 51.0909 136.894 49.7561ZM139.139 46.573C140.286 46.573 141.078 47.3174 141.281 48.5752H136.919C137.149 47.343 137.94 46.573 139.139 46.573Z"/>
      <path fill-rule="evenodd" clip-rule="evenodd" d="M5.27225 5.29773L5.27075 5.29925C3.23568 7.34252 2.17636 9.95716 1.6362 13.6594C1.09143 17.3933 1.08915 22.114 1.08915 28.3098C1.08915 34.5055 1.09143 39.2264 1.63621 42.9615C2.17637 46.6651 3.23578 49.2828 5.2715 51.3314L5.27225 51.3321C7.30268 53.3801 9.9009 54.4461 13.5799 54.9896C17.2903 55.5379 21.9813 55.5401 28.1382 55.5401C34.295 55.5401 38.986 55.5379 42.6978 54.9896C46.3779 54.4461 48.9793 53.3799 51.015 51.3314C53.0508 49.2826 54.1101 46.6673 54.6503 42.9653C55.1951 39.2314 55.1974 34.5107 55.1974 28.3098C55.1974 22.1088 55.1951 17.3883 54.6503 13.6543C54.1101 9.95233 53.0508 7.33703 51.015 5.28828C48.9793 3.24478 46.3805 2.18125 42.7018 1.63897C38.9912 1.09197 34.3001 1.08968 28.1382 1.08968C21.9762 1.08968 17.2852 1.09198 13.5761 1.64019C9.89864 2.18372 7.30282 3.24964 5.27225 5.29773ZM51.6746 4.62444C56.1303 9.10821 56.1303 15.9616 56.1303 28.3098C56.1303 40.6581 56.1303 47.5114 51.6746 51.9952C47.2191 56.479 40.3987 56.479 28.1382 56.479C15.8777 56.479 9.05728 56.479 4.61184 51.9952C0.15625 47.5114 0.15625 40.6478 0.15625 28.3098C0.15625 15.9717 0.15625 9.10821 4.61184 4.63465C9.05728 0.150879 15.8676 0.150879 28.1382 0.150879C40.4089 0.150879 47.2191 0.150879 51.6746 4.62444Z"/>
      <path d="M27.0144 45.8021C25.0784 44.3166 23.6506 42.1005 23.1908 39.519H16.9473V12.3656C20.311 14.046 22.7068 17.772 22.9972 21.6197L23.9411 29.2422L23.4812 29.1691C22.4649 29.1691 21.5936 30.1188 21.5936 31.0686C21.5936 31.9452 22.2713 32.7002 23.1425 32.8951L24.2798 33.1629C26.1675 29.5831 27.2322 26.0763 27.2322 22.6182C27.2322 19.501 26.8209 16.4083 26.7724 13.2423C26.7724 11.8299 27.3047 10.5392 28.176 9.54071C29.0472 10.5635 29.5795 11.8299 29.5795 13.2423C29.5795 16.4083 29.1198 19.5253 29.1198 22.6182C29.1198 26.0519 30.1845 29.5831 32.0722 33.1629L33.2095 32.8951C34.0807 32.7002 34.7583 31.9452 34.7583 31.0686C34.7583 30.1188 33.8871 29.1691 32.8708 29.1691L32.4109 29.2422L33.3548 21.6197C33.8146 17.772 36.0409 14.046 39.4047 12.3656V39.519H33.1612C32.7014 42.0761 31.3461 44.3897 29.3376 45.8021C28.8778 46.143 28.4664 46.557 28.2002 47.0927C27.8856 46.5327 27.4741 46.143 27.0144 45.8021ZM19.8997 30.1432C20.1659 29.1204 20.916 28.2436 21.8357 27.708L21.0854 21.4249C20.8193 19.4766 20.0207 17.7233 18.8107 16.2865V30.1188H19.8997V30.1432ZM23.0698 37.6195C23.0698 36.6698 23.215 35.793 23.4087 34.9164L22.5374 34.7215C21.2548 34.3075 20.2627 33.3091 19.9239 32.0183H18.859V37.6195H23.0698ZM27.208 37.6195C27.208 36.4749 26.3369 35.4521 25.1995 35.3303C25.0058 36.061 24.8607 36.8159 24.8607 37.6195H27.208ZM27.208 39.519H25.1268C25.4656 41.0045 26.1915 42.344 27.208 43.5129V39.519ZM30.1604 33.65C29.3618 32.1645 28.6115 30.6059 28.1518 28.9986C27.692 30.6303 26.9418 32.1645 26.1432 33.65C26.9418 33.8448 27.6193 34.3806 28.1518 34.9894C28.6842 34.3806 29.3618 33.8448 30.1604 33.65ZM31.443 37.6195C31.443 36.8159 31.2977 36.061 31.1042 35.3303C29.9668 35.4765 29.0955 36.4749 29.0955 37.6195H31.443ZM31.1767 39.519H29.0955V43.5129C30.112 42.344 30.8379 41.0045 31.1767 39.519ZM37.4929 37.6195V32.0183H36.428C36.0892 33.3091 35.0972 34.3075 33.8146 34.7215L32.9433 34.9164C33.1369 35.793 33.2821 36.6698 33.2821 37.6195H37.4929ZM37.4929 30.1432V16.3108C36.2829 17.7233 35.4117 19.4766 35.2181 21.4492L34.468 27.7323C35.4117 28.268 36.1377 29.1448 36.404 30.1675H37.4929V30.1432Z"/>
    </g>
    <g transform="matrix(0.108559, 0, 0, 0.108559, 308.494629, 50.318241)" style="">
      <path fill="#000000" opacity="1.000000" stroke="none" d=" M902.533875,1.000000 C902.029541,11.790341 898.863159,22.158745 896.870300,32.753860 C890.911255,64.433968 884.248291,95.991524 878.859924,127.766449 C872.970886,162.494247 867.910889,197.364578 863.096924,232.270615 C858.603577,264.851807 854.686523,297.501129 850.751099,330.144867 C847.691711,355.522491 845.654358,381.025787 843.318359,406.487488 C840.524902,436.935730 838.118103,467.421021 835.117004,497.848114 C833.225708,517.023743 831.428162,536.186523 830.182983,555.423706 C828.586182,580.093323 828.037231,604.828552 823.616089,629.322937 C818.814941,655.923035 799.953674,682.116150 768.097778,686.306152 C752.575195,688.347839 737.094055,689.289124 721.366760,688.588135 C704.884216,687.853638 688.518982,686.446472 672.198914,684.284729 C641.190552,680.177490 610.513000,674.303528 580.283997,666.245117 C575.783081,665.045349 573.145081,665.449707 570.511902,669.834717 C560.526550,686.463379 548.485168,701.593018 534.526306,715.049133 C505.989929,742.557678 472.946106,762.473083 434.687927,773.505981 C417.828308,778.367981 400.732574,781.270569 383.206665,782.516602 C345.634399,785.187744 309.725525,778.837891 275.061310,764.419128 C244.608841,751.752258 218.288696,733.041382 195.241562,709.691345 C182.455505,696.737244 171.542892,682.196960 162.220596,666.542603 C160.501266,663.655457 159.060699,662.536743 155.562531,663.596191 C143.121307,667.363953 137.386307,658.663269 134.690964,649.928406 C134.416977,649.040527 134.345383,647.348511 134.789719,647.093933 C139.878616,644.177979 137.504120,639.194275 138.298538,635.115540 C138.330399,634.952026 138.329468,634.772156 138.400269,634.627563 C142.767807,625.709351 138.788879,617.515198 136.210098,609.194458 C130.076813,589.404602 126.469391,569.256470 125.434723,548.469849 C124.222809,524.122437 126.830887,500.356140 132.951187,476.886627 C133.992615,472.893036 133.378357,469.828888 131.166977,466.191315 C116.341156,441.804138 114.652184,415.277100 132.424423,391.946564 C142.528732,378.682129 156.517136,371.898956 172.907944,369.752136 C177.881195,369.100769 182.813126,368.619843 187.795456,369.688873 C191.219910,370.423645 193.924576,369.639435 196.697205,366.954834 C219.711029,344.671356 246.099289,327.473602 275.997223,315.903107 C298.603394,307.154510 321.923615,301.475647 346.216827,299.524750 C369.918304,297.621399 393.338531,298.581299 416.618134,303.346649 C417.051514,303.435394 417.548279,303.214600 418.538055,303.052765 C416.719727,297.811493 413.408325,293.610413 411.034088,288.945343 C410.209045,287.324158 409.213684,285.753845 408.650513,284.043610 C407.788361,281.425507 406.101990,278.057220 409.255341,276.385345 C412.355835,274.741455 416.536560,274.730804 418.907806,277.895569 C426.115509,287.515228 436.257050,290.842499 447.485901,292.142975 C457.201782,293.268219 466.094940,291.185699 473.284912,284.336670 C476.018921,281.732269 478.604675,281.288910 481.849335,282.408661 C485.308380,283.602386 485.403076,286.294464 485.046570,289.331024 C483.043701,306.390625 500.258850,315.881836 515.827087,313.483276 C532.665955,310.888855 547.417603,303.300659 561.510254,294.229187 C566.265259,291.168427 570.770569,287.717590 575.363708,284.408630 C577.294800,283.017487 579.230408,281.821442 581.783936,282.236816 C586.406372,282.988708 587.939941,286.088287 585.499939,290.070190 C584.548584,291.622742 583.623291,293.546417 582.161377,294.374237 C571.448059,300.440338 569.159180,311.538574 565.656860,321.803802 C561.070435,335.246216 561.581543,348.589508 567.594727,361.605713 C568.775757,364.162201 570.059692,365.977722 573.406128,366.072968 C597.911621,366.770447 620.862183,373.657257 643.105835,383.577118 C672.431885,396.655396 699.042297,413.908783 722.568054,435.666534 C733.788757,446.043976 744.760925,456.782013 754.616272,468.561462 C756.886658,471.275024 759.049622,475.268738 763.274231,474.324158 C767.356384,473.411346 768.104065,469.059052 769.060059,465.613770 C772.443115,453.421997 773.895935,440.875671 775.739075,428.385406 C780.104797,398.800446 783.380798,369.088165 786.760132,339.385376 C789.745117,313.149109 792.675781,286.906616 795.713135,260.676422 C798.311707,238.234955 800.729370,215.766693 803.758362,193.382187 C808.903992,155.355728 814.056091,117.333931 820.220520,79.442741 C824.407654,53.705597 829.257874,28.011566 830.974731,1.454598 C836.022095,1.000000 841.044189,1.000000 846.418457,1.391113 C845.779663,10.860116 845.148376,19.994469 843.733948,29.005911 C838.297119,63.645496 832.687317,98.258553 826.991516,132.856735 C821.890381,163.842529 817.662170,194.951050 813.585388,226.081360 C810.650879,248.489166 807.917419,270.923187 805.052856,293.340240 C802.841125,310.648193 800.645081,327.958832 798.296326,345.248474 C795.747864,364.008087 793.076111,382.751282 790.374817,401.489655 C787.339111,422.547302 784.616150,443.666779 779.328369,464.324097 C778.048645,469.323303 776.268005,474.192383 773.296509,478.501587 C768.922729,484.844330 760.456848,486.925171 753.900574,482.913818 C749.510864,480.228058 745.348450,477.126953 741.834595,473.269623 C719.141663,448.358215 693.908081,426.555664 664.313965,410.122925 C660.016235,407.736481 655.866882,404.954865 650.958923,403.787903 C649.108643,408.011902 647.563660,412.001892 643.296814,414.155975 C633.901428,418.899078 626.335449,425.485474 621.779114,435.303894 C619.856689,439.446594 621.022217,441.203522 624.977661,442.686249 C638.549866,447.774017 651.603210,454.069977 664.686340,460.277161 C689.460449,472.031128 711.871460,487.726654 734.843079,502.483459 C739.465332,505.452759 744.131226,508.402802 748.093079,512.234619 C749.779907,513.866028 752.525574,515.643860 750.871948,518.490540 C749.266357,521.254639 746.179810,520.393250 743.565613,520.149048 C742.766968,520.074402 741.987732,519.642883 741.229492,519.307190 C733.923523,516.073425 726.538147,513.003784 719.338074,509.548553 C694.426514,497.593811 669.800842,484.998962 643.534973,476.126709 C638.920837,474.568085 634.568298,472.122101 628.987366,471.405701 C632.273193,476.345886 636.843994,478.509399 641.196350,480.819489 C644.688049,482.672791 648.267578,483.770599 652.597839,483.053528 C658.429321,482.087891 663.455322,485.817352 662.904419,489.652283 C662.156677,494.858368 656.364563,500.380707 650.914185,501.470917 C644.786011,502.696747 638.821167,504.446533 633.211182,509.080597 C652.061279,515.312073 669.995911,521.865906 687.879272,528.563477 C705.658569,535.222107 723.143982,542.597046 740.622803,549.986633 C743.505432,551.205322 747.371399,553.144165 746.483887,556.521301 C745.527649,560.159790 741.045044,560.234924 737.598816,560.674377 C736.803772,560.775757 735.948730,560.499390 735.133484,560.335815 C729.101624,559.125061 722.973572,558.256897 717.059387,556.618469 C684.021545,547.465515 651.007080,538.224426 618.066101,528.730774 C613.650024,527.458008 611.459656,528.490601 610.067566,532.463257 C609.463684,534.186768 608.422791,535.913025 608.388428,537.654053 C608.215332,546.414856 608.308960,555.180969 608.308960,564.425476 C608.024963,564.334839 608.628357,564.578186 609.254822,564.720093 C634.222107,570.372803 659.021851,576.849792 684.386047,580.583496 C701.006958,583.030090 717.279358,587.438354 734.031128,589.154907 C737.450806,589.505249 741.049438,589.504456 744.220947,591.316284 C745.956421,592.307678 748.272644,593.121704 747.909363,595.474854 C747.538147,597.878967 744.967346,597.940552 743.085632,598.184143 C735.502625,599.165833 727.906189,599.981506 720.231140,599.945129 C706.413818,599.879639 692.623901,599.308838 678.841980,598.324829 C666.074646,597.413330 653.297668,596.500183 640.702759,594.200317 C628.457825,591.964294 616.306580,589.215576 603.878601,586.643250 C601.003967,592.884094 600.167358,599.414001 598.790039,606.029602 C603.133057,607.395508 607.312744,607.320862 611.373291,607.980225 C641.140320,612.813354 671.335266,612.522034 701.252441,615.577576 C712.349365,616.710999 723.554443,616.167114 734.712524,615.697510 C737.262451,615.590149 740.348755,615.659790 740.895386,618.618469 C741.526123,622.032471 738.344421,622.670898 735.761414,623.518188 C724.386841,627.249939 712.554382,627.847656 700.782288,628.135071 C684.127625,628.541504 667.455383,628.224731 650.790649,628.228760 C632.491882,628.233215 614.195862,628.187256 596.043274,625.392822 C592.683777,624.875732 590.641663,626.090210 589.902832,629.542419 C588.640320,635.441895 585.960388,640.820862 583.537415,646.291870 C583.089783,647.302612 582.264404,648.330383 583.222717,649.828552 C583.904236,650.083740 584.796021,650.503479 585.732910,650.755554 C599.071472,654.345703 612.649841,656.839722 626.147400,659.721924 C655.294067,665.946045 684.791565,669.616150 714.466553,671.468384 C731.030151,672.502136 747.722107,672.439270 764.260864,669.687134 C781.323425,666.847961 794.905090,659.009399 801.617371,642.521545 C807.135498,628.966797 810.707642,614.696594 813.716919,600.367920 C820.188538,569.554443 822.182495,538.173950 824.489258,506.889557 C826.528564,479.233856 828.533447,451.572845 830.487732,423.910767 C832.418396,396.582947 835.018188,369.328918 837.491699,342.053894 C840.343079,310.612030 843.886902,279.255005 847.545288,247.900681 C850.915588,219.015594 854.876404,190.209473 859.112305,161.453812 C864.343018,125.945053 870.415894,90.556686 877.265808,55.313911 C880.786865,37.198196 884.418396,19.103947 888.000000,0.999999 C892.689270,1.000000 897.378479,1.000000 902.533875,1.000000 M185.663513,646.194702 C182.527939,648.393982 179.432022,650.652832 176.244827,652.774597 C173.467529,654.623413 173.243347,656.405884 175.123322,659.342346 C199.927719,698.085388 232.849655,727.584778 274.789978,746.665771 C303.812317,759.869690 334.455017,766.184021 366.299652,766.824524 C372.587463,766.950989 378.813446,766.509644 385.669861,765.348450 C380.427002,754.118042 379.133789,742.397583 376.881592,730.867737 C374.389984,718.112366 374.753662,705.798645 379.861481,693.752563 C380.448822,692.367432 380.844757,690.732178 382.520905,690.383728 C384.686859,689.933228 385.209869,691.922913 386.107422,693.243164 C386.667084,694.066467 387.054382,695.008362 387.625641,695.822205 C395.559937,707.125671 395.043915,720.347961 396.212250,733.209473 C397.007874,741.967651 396.704071,750.829468 398.481781,759.483643 C398.956451,761.794434 398.710815,765.115112 403.131409,764.240906 C415.384094,761.817871 427.595581,759.237915 439.352051,754.965454 C444.405121,753.129028 449.734406,751.773315 454.362732,748.781616 C438.301178,723.346497 433.599915,696.738892 446.600220,669.629578 C459.227356,643.298462 480.563995,626.512634 510.257324,621.087891 C509.851440,618.678772 509.465424,616.577148 509.147919,614.465210 C508.382935,609.377380 506.797516,604.241028 507.056305,599.201904 C508.019806,580.441101 515.508789,564.456299 529.187378,551.496338 C547.019470,534.601135 573.024170,534.051575 591.650330,550.098938 C592.142761,550.523193 592.695679,550.977478 593.817139,550.250000 C594.548462,530.214600 594.496643,510.003418 589.691833,490.070984 C589.055115,487.429779 587.393677,487.092590 585.223267,487.322632 C568.101135,489.137390 551.418091,492.991302 535.278381,498.904785 C515.256042,506.240875 497.159302,517.220337 480.284058,530.075928 C459.837311,545.652405 440.606842,562.530640 426.119324,584.182068 C422.392426,589.751953 417.714508,594.702332 411.573822,599.014282 C408.842621,593.516357 409.737579,588.384827 410.315948,583.423828 C411.972626,569.214355 420.513641,558.646423 429.772522,548.753174 C451.055908,526.011536 475.878082,508.012573 503.969391,494.497162 C524.577576,484.582031 546.044067,478.084625 568.981384,476.378876 C574.333801,475.980835 579.824585,476.170929 585.228882,475.372009 C573.675964,419.144470 515.969910,339.375366 414.545868,317.762421 C364.409882,307.078705 315.837006,313.508820 269.452972,335.132141 C247.533478,345.350616 227.518036,358.620331 209.847855,376.050903 C213.000946,378.608521 215.220749,381.006317 219.173096,379.923706 C221.599091,379.259186 223.659134,380.620575 225.622009,381.988098 C234.437180,388.129456 240.324081,396.586090 243.502457,406.607574 C249.777298,426.392273 246.976868,445.273010 236.878235,463.338776 C220.969604,491.798279 186.186600,504.948700 155.334351,488.707916 C152.303024,487.112213 149.386963,485.297516 146.380569,483.563202 C135.903061,509.021820 137.957626,583.276489 149.578583,600.840637 C154.130829,590.903259 158.871201,581.200012 165.153870,572.329895 C185.429153,543.704651 210.290878,521.287720 245.342514,512.413330 C273.358398,505.320251 300.172485,507.642487 325.384674,522.441284 C364.648407,545.487854 393.610596,577.901062 412.443451,619.278809 C416.800110,628.850769 420.364044,638.970947 417.195129,649.721008 C413.002838,663.942749 406.278076,672.656189 388.020782,665.786133 C385.379486,664.792175 382.807983,663.569214 380.303284,662.262329 C351.161163,647.057129 320.949371,634.447327 289.725433,624.147888 C270.337555,617.752686 251.154449,616.543274 231.432816,622.749268 C215.005478,627.918762 200.267212,636.060486 185.663513,646.194702 M194.164017,567.661072 C185.344345,576.757507 176.829147,586.161316 170.160553,596.956909 C161.243332,611.392883 152.236633,625.827881 147.114105,642.233826 C146.327637,644.752686 146.428406,646.627991 148.403152,648.505554 C150.408676,650.412476 152.363708,649.570251 154.430206,648.890320 C158.599152,647.518738 162.229950,645.145386 165.824341,642.731323 C178.951859,633.914795 191.783951,624.647949 206.338150,618.148071 C235.203583,605.256836 264.527710,600.386902 295.566895,610.351013 C316.065826,616.931396 336.040039,624.705627 355.648468,633.448914 C367.046204,638.531006 377.985443,644.632812 389.269257,649.984253 C392.528778,651.530029 396.262970,654.298035 399.923676,651.102417 C403.474548,648.002747 403.149323,643.524658 402.355865,639.432068 C401.182007,633.377441 399.098267,627.550293 396.251251,622.057983 C379.111603,588.992615 355.634766,561.704102 323.523193,542.261841 C294.552948,524.721497 264.890381,523.632263 234.463318,538.202393 C219.404861,545.413208 206.603836,555.689941 194.164017,567.661072 M203.662827,383.828278 C194.563278,380.629364 185.304031,379.467560 175.715210,381.244293 C147.358032,386.498749 124.645325,410.944336 134.382370,442.529510 C141.299316,464.966736 156.773605,478.345184 178.383347,480.462891 C200.851257,482.664764 222.673218,466.505493 229.002792,443.461060 C233.566177,426.846863 232.087906,411.094910 218.549088,398.361511 C216.761536,396.680328 214.854996,394.680817 214.084274,392.454620 C212.407394,387.610962 209.036606,385.250641 203.662827,383.828278 M585.918457,436.717712 C598.002869,462.591370 604.781982,489.913361 607.471863,519.744446 C614.505859,509.275909 620.924805,500.442230 630.031921,493.081604 C616.161926,483.256195 608.509155,470.427399 607.087036,453.984680 C605.609924,436.906708 613.515503,424.480591 627.367371,414.228180 C623.942017,413.416229 621.539856,412.854431 619.141418,412.277100 C597.896667,407.163544 578.984253,397.959167 565.135132,380.440857 C554.646301,367.173065 550.693176,351.869659 552.675903,335.107941 C553.694519,326.496674 557.180176,318.560638 560.415710,310.206207 C559.537598,310.473297 559.072510,310.553955 558.662231,310.749664 C556.409363,311.824341 554.166199,312.919556 551.926575,314.021698 C537.900574,320.924042 523.477478,326.318542 507.459686,325.286865 C496.699951,324.593903 487.531372,320.689941 480.484802,312.124817 C477.606689,308.626434 476.626343,304.117859 473.700623,300.376770 C458.421021,307.904388 443.035461,306.147949 427.432312,301.043213 C428.586853,305.751740 428.565887,305.821442 432.355255,306.961243 C448.007111,311.669189 463.241547,317.372345 477.856659,324.784119 C526.583191,349.494812 562.172852,386.856598 585.918457,436.717712 M509.247986,715.740112 C522.495911,704.782104 534.382751,692.502991 545.116211,679.075195 C547.334717,676.299744 548.231934,673.942261 545.927795,670.655151 C544.770386,669.003906 544.728821,666.563538 544.208313,664.473694 C541.383728,653.134766 534.183105,647.643799 522.446533,647.278015 C509.616608,646.878357 499.327057,652.591553 489.874359,660.303040 C473.597534,673.581543 464.056549,706.386841 490.790771,725.834839 C492.795654,727.293335 494.163422,727.352844 496.019714,725.888062 C500.196808,722.592163 504.469666,719.417664 509.247986,715.740112 M570.954773,607.442261 C575.519226,600.818237 579.144714,593.844910 580.825562,585.821472 C583.356934,573.737671 577.563416,565.036499 565.286865,564.542175 C552.406189,564.023682 540.870605,568.072571 534.370117,579.910095 C526.880554,593.548828 526.872559,607.704285 535.552002,621.115906 C538.277710,625.327759 544.189087,627.185791 547.708740,625.440796 C556.426514,621.118530 564.480530,615.869507 570.954773,607.442261 M640.300049,399.685425 C640.825073,399.510803 641.609680,400.089081 641.975159,398.884277 C625.003967,391.201843 607.655457,384.871399 587.933167,382.415466 C598.173218,391.466309 619.426819,398.340576 640.300049,399.685425 M562.017212,643.372681 C560.881958,646.077209 562.378601,647.897888 563.968933,650.140747 C566.899170,646.350037 568.509949,642.442566 570.071594,638.350281 C567.919434,640.606384 565.011353,641.393860 562.017212,643.372681 z"/>
      <path fill="#000000" opacity="1.000000" stroke="none" d=" M553.459167,85.680336 C558.500916,93.020363 559.067322,97.541901 553.504028,103.512733 C548.723572,108.643433 546.087891,114.779472 542.562683,120.513298 C532.621399,136.683136 522.883911,152.985474 512.608826,168.941101 C500.792938,187.289505 490.070679,206.281219 478.776611,224.934906 C474.885773,231.361160 470.249908,237.229828 465.077057,242.688065 C463.191833,244.677292 461.052002,245.480804 458.366760,245.155304 C438.509308,242.748215 420.502838,235.314987 403.551086,225.009781 C402.982910,224.664383 402.433472,224.277954 401.917236,223.858994 C399.347229,221.773117 396.799805,218.966446 398.535736,215.867004 C400.419830,212.503052 404.010254,214.334808 406.568176,215.721283 C420.918640,223.499603 435.326935,231.129929 450.792542,236.530350 C452.203094,237.022903 453.621735,237.503754 454.996521,238.084961 C457.968994,239.341614 459.526093,238.261093 460.656616,235.333557 C473.753113,201.418365 492.275513,170.457047 512.312622,140.295853 C517.814026,132.014801 522.592712,123.253693 527.746704,114.639938 C485.777039,101.334549 449.641876,79.032005 415.783478,51.384739 C412.849060,56.000690 410.974884,61.108707 409.109222,66.122650 C398.084442,95.751564 387.361908,125.493401 376.249634,155.089081 C372.099884,166.141205 367.193237,176.910080 362.589294,187.790146 C361.413544,190.568802 359.783783,193.086243 357.572815,195.174881 C356.492554,196.195343 355.414642,197.462463 353.694611,196.890701 C352.048645,196.343552 351.290802,194.794205 351.468628,193.318497 C351.989532,188.994995 349.314667,187.644943 345.954102,186.429062 C335.951569,182.810104 326.144806,178.603790 315.584778,176.734268 C312.790710,176.239624 310.009033,176.046036 306.518799,176.958679 C309.559265,182.165344 314.061005,185.571640 318.307770,188.978806 C333.852386,201.450256 351.672028,210.267776 368.988037,219.879974 C393.936676,233.729065 420.024536,245.129059 446.595612,255.397369 C459.934387,260.552094 473.667938,264.630096 488.073669,265.725159 C489.838928,265.859344 491.623260,265.743439 494.042297,265.743439 C490.388763,260.628571 485.756622,257.628967 481.556793,254.261429 C477.910187,251.337494 476.128479,247.611649 475.148071,243.320236 C474.224915,239.279434 475.997406,237.315689 480.216888,237.612396 C482.569092,237.777802 484.836609,238.425201 486.830109,239.707672 C495.139130,245.053009 502.697327,251.247696 508.752930,259.150238 C511.923187,263.287445 511.881104,267.255951 508.804932,271.483063 C503.523438,278.740570 496.710449,282.093506 487.666443,280.673706 C462.522675,276.726532 438.577209,268.792145 415.156403,259.072205 C386.353973,247.118851 358.884308,232.499786 331.734039,217.260574 C318.167023,209.645493 305.510040,200.808640 295.366821,188.760818 C290.650330,183.158691 289.079620,176.736252 289.954681,169.658127 C290.784637,162.944855 294.395935,159.949142 301.460968,159.681213 C314.740601,159.177582 326.103485,164.446320 336.916504,171.402252 C342.074036,174.720062 347.410828,177.768295 352.254547,182.033676 C354.285065,179.130096 354.924500,176.001877 355.557648,173.014832 C359.404236,154.868118 366.183807,137.642792 371.943481,120.097809 C380.778870,93.183464 391.854309,67.130264 402.406006,40.875263 C403.106354,39.132580 403.810028,37.404373 405.480164,36.467293 C407.367676,35.408249 407.735077,33.852268 407.750793,31.879057 C407.786530,27.387503 410.550690,24.984163 414.495331,23.661451 C422.467712,20.988142 430.552002,21.565096 438.709991,22.687050 C471.425385,27.186356 500.787231,39.863628 527.264709,59.296932 C537.215149,66.600143 545.909363,75.365875 553.459167,85.680336 M488.673676,77.687637 C503.445435,84.396675 518.115967,91.439590 534.793640,92.158920 C528.602295,83.670639 521.568665,76.461525 513.547302,70.181725 C501.259094,60.561432 487.437286,53.563606 473.335541,47.262058 C458.722321,40.731953 443.357513,36.480949 427.132538,36.368565 C424.198944,36.348244 421.301147,36.605350 418.229340,39.287876 C440.108124,55.284836 463.824829,66.728767 488.673676,77.687637 z"/>
      <path fill="#000000" opacity="1.000000" stroke="none" d=" M135.834213,357.673981 C127.037422,371.117065 114.907326,379.359558 99.926811,383.538635 C94.229691,385.127960 90.767090,383.751862 88.832832,379.711060 C87.519409,376.967285 87.823143,374.954681 90.913269,373.768646 C105.923065,368.007751 117.430511,358.157562 125.492950,344.231750 C127.698639,340.422028 131.661163,339.778381 135.495667,339.925934 C139.439758,340.077728 141.806290,343.593964 140.560028,347.392670 C139.428925,350.840302 137.566849,354.048096 135.834213,357.673981 z"/>
      <path fill="#000000" opacity="1.000000" stroke="none" d=" M446.357361,421.095520 C448.256775,438.531525 444.607422,454.224609 435.330566,468.591705 C422.464966,488.516602 404.393433,499.284027 380.463440,497.756897 C356.435791,496.223541 339.660370,483.141998 328.769043,462.075623 C323.797241,452.458954 320.896759,442.099365 320.896942,431.393890 C320.897217,417.200836 325.321045,404.089203 334.861420,393.296692 C354.150513,371.475983 384.589630,366.010773 410.321472,379.504150 C412.662323,380.731659 414.791107,382.382538 416.948517,383.933960 C418.325592,384.924194 419.653503,385.959137 421.466339,385.679077 C425.782379,385.012268 428.875183,387.223694 431.515594,390.134857 C439.417877,398.847382 444.605438,408.918762 446.357361,421.095520 M370.335205,480.275146 C391.310364,485.946075 407.978760,478.762512 421.371277,462.717560 C433.282867,448.446838 436.076691,422.990234 426.151733,408.449249 C422.430664,402.997559 417.141388,398.627686 415.051819,392.019196 C414.546448,390.420929 412.478149,390.011047 411.003448,389.276093 C401.188019,384.384491 390.787323,383.217438 379.947601,384.000092 C360.588989,385.397888 341.547638,400.184326 336.057159,417.606293 C329.265594,439.156769 342.212250,471.594604 370.335205,480.275146 z"/>
      <path fill="#000000" opacity="1.000000" stroke="none" d=" M429.726929,349.563568 C434.696899,347.897797 435.872650,350.895905 436.726196,354.434570 C439.679718,366.679382 446.097748,376.732819 456.014374,384.500854 C461.604919,388.880096 468.191467,391.280670 474.791718,393.612854 C476.203156,394.111572 477.677551,394.437897 479.074554,394.970581 C484.834503,397.166931 486.400452,399.920502 484.654785,404.655273 C482.057983,411.698761 479.347839,413.347473 473.320038,411.206268 C447.727264,402.114990 432.634644,383.961365 427.200653,357.529297 C426.591522,354.566315 427.147827,351.929688 429.726929,349.563568 z"/>
      <path fill="#000000" opacity="1.000000" stroke="none" d=" M301.526825,590.552856 C289.921906,586.710510 278.519379,583.694275 266.742004,582.382324 C248.819199,580.385742 231.976151,584.821838 215.873123,592.034973 C204.957352,596.924500 193.438919,600.467163 183.071243,606.586731 C181.586838,607.462891 179.864914,608.168884 178.583237,606.453247 C177.014069,604.352844 177.191788,601.898376 178.711609,599.931885 C182.868591,594.553345 186.620422,588.649414 192.380753,584.860107 C220.721497,566.216553 251.453873,559.476013 284.712128,567.756348 C309.589203,573.950073 333.215179,583.160767 353.659515,599.237732 C356.470886,601.448547 358.346405,603.837097 358.012970,607.617371 C357.556671,612.790039 353.097961,615.644775 348.406738,613.347046 C345.287628,611.819275 342.464294,609.690002 339.499390,607.844788 C327.706604,600.505371 315.013611,595.134705 301.526825,590.552856 z"/>
      <path fill="#000000" opacity="1.000000" stroke="none" d=" M175.749695,426.432495 C174.414612,432.622772 172.001694,437.901154 168.474762,442.607056 C164.322418,448.147308 159.085526,447.915741 155.877136,441.936096 C149.725601,430.471130 149.777802,418.632416 154.979355,406.926361 C157.835480,400.498657 169.491180,398.423859 174.975021,402.894714 C177.004440,404.549225 177.261856,406.837585 177.379684,409.186340 C177.664841,414.869476 177.070786,420.476288 175.749695,426.432495 z"/>
      <path fill="#000000" opacity="1.000000" stroke="none" d=" M383.280273,414.090424 C382.225983,425.543579 380.091003,436.236725 373.847168,445.658997 C372.006683,448.436401 370.075500,451.396149 366.164398,451.214813 C361.937866,451.018829 359.817139,447.913330 358.136627,444.583954 C353.655609,435.706482 355.807831,427.128479 359.559357,418.676849 C360.807465,415.865112 363.099304,413.461548 362.329376,409.917175 C362.052887,408.644440 362.999847,407.191559 364.109467,406.506317 C368.201569,403.979218 372.860413,402.906921 377.383636,404.291199 C381.533112,405.561066 383.616028,409.070953 383.280273,414.090424 z"/>
    </g>
    <g transform="matrix(0.04543, 0, 0, 0.04543, 365.145081, 92.299026)" style="">
      <path fill="#003964" opacity="1.000000" stroke="none" d="M 2671.57 419.856 C 2685.84 433.38 2698.76 447.63 2709.25 463.849 C 2722.25 483.935 2731.78 505.655 2736.21 529.22 C 2738.73 542.653 2739.82 556.366 2741.3 569.979 C 2741.97 576.033 2742.54 582.176 2742.27 588.24 C 2740.95 617.947 2736.16 646.951 2724.35 674.531 C 2712.57 702.017 2695.5 725.71 2673.3 745.57 C 2656.15 760.917 2636.57 772.564 2615.4 781.737 C 2596.29 790.014 2576.31 794.945 2556.05 799.048 C 2550.48 800.176 2544.74 800.454 2538.8 801.155 C 2538.54 799.858 2538.53 798.515 2538 797.425 C 2536.66 794.668 2537.69 793.927 2540.39 793.016 C 2556.36 787.623 2571.8 780.858 2585.53 771.032 C 2611.52 752.437 2629.03 727.82 2636.35 696.404 C 2639.91 681.097 2641.37 665.505 2640.24 649.894 C 2638.27 622.801 2629.57 598.158 2612.46 576.567 C 2600.19 561.094 2585.4 548.574 2569.52 537.199 C 2539.91 515.99 2506.98 500.697 2474.73 484.161 C 2439.19 465.93 2403.99 447.042 2371.2 424.083 C 2352.4 410.921 2334.96 396.022 2319.75 378.853 C 2299.16 355.612 2284.58 328.89 2277.65 298.474 C 2275.3 288.194 2274.48 277.535 2273.45 267.001 C 2272.68 259.121 2272.19 251.147 2272.45 243.244 C 2273.23 220.208 2277.23 197.749 2285.79 176.228 C 2292.36 159.734 2301.22 144.656 2312.19 130.642 C 2325.6 113.513 2341.8 99.693 2359.98 88.069 C 2379.86 75.37 2401.28 66.01 2424.12 60.23 C 2439.47 56.344 2455.05 53.335 2470.59 50.264 C 2475.53 49.286 2480.69 49.37 2485.82 48.963 C 2486.42 51.324 2486.93 53.309 2487.36 54.99 C 2477.57 59.092 2467.75 62.705 2458.39 67.246 C 2445.41 73.538 2433.74 81.993 2423.75 92.382 C 2406.78 110.025 2396.31 131.135 2392.42 155.328 C 2391 164.185 2389.39 173.187 2389.57 182.088 C 2389.89 198.192 2392.15 214.132 2398.36 229.255 C 2404.36 243.872 2412.92 256.674 2423.78 268.21 C 2438.43 283.784 2455.44 296.13 2474.05 306.298 C 2488.79 314.354 2503.86 321.84 2518.94 329.241 C 2538.24 338.708 2557.87 347.5 2577.05 357.191 C 2603.52 370.562 2628.85 385.881 2652.48 403.856 C 2658.99 408.805 2665.06 414.332 2671.57 419.856 Z"/>
      <path fill="#003964" opacity="1.000000" stroke="none" d="M 2863.41 790.932 C 2864.03 775.111 2864.69 759.764 2865.36 744.418 C 2865.68 737.161 2866.14 729.907 2866.34 722.647 C 2866.75 707.726 2867 692.801 2867.37 677.879 C 2867.66 666.455 2868.18 655.035 2868.33 643.609 C 2868.75 612.022 2869.16 580.435 2869.33 548.846 C 2869.75 475.596 2870.14 402.345 2870.3 329.094 C 2870.35 303.673 2869.73 278.25 2869.34 252.829 C 2869.09 236.072 2868.72 219.316 2868.35 202.561 C 2868.06 189.47 2867.72 176.381 2867.35 163.292 C 2867.06 152.701 2866.7 142.111 2866.36 131.522 C 2866.03 121.598 2865.8 111.67 2865.32 101.754 C 2864.62 87.43 2863.73 73.116 2862.9 58.455 C 2914.97 58.455 2966.37 58.455 3018.6 58.455 C 3018.18 62.46 3017.49 66.444 3017.41 70.44 C 3016.97 92.693 3016.71 114.95 3016.36 137.205 C 3016.04 156.795 3015.7 176.384 3015.36 195.972 C 3015.03 214.728 3014.46 233.483 3014.4 252.24 C 3013.99 366.82 3013.62 481.4 3013.42 595.98 C 3013.37 621.568 3013.98 647.158 3014.38 672.745 C 3014.63 689.169 3015 705.591 3015.37 722.013 C 3015.65 734.437 3015.9 746.865 3016.4 759.281 C 3016.84 770.092 3017.61 780.89 3018.26 792.143 C 3016.59 792.143 3015.13 792.143 3013.67 792.143 C 2965.17 792.143 2916.68 792.15 2868.18 792.112 C 2866.6 792.111 2865.03 791.652 2863.41 790.932 Z"/>
      <path fill="#003964" opacity="1.000000" stroke="none" d="M 1734.36 60.356 C 1734.03 77.26 1733.71 93.683 1733.35 110.105 C 1733.05 123.695 1732.64 137.283 1732.37 150.874 C 1731.99 170.128 1731.63 189.383 1731.37 208.64 C 1730.99 237.56 1730.53 266.481 1730.39 295.403 C 1729.97 380.317 1729.56 465.232 1729.42 550.147 C 1729.37 583.901 1729.98 617.655 1730.38 651.408 C 1730.6 669.999 1730.99 688.587 1731.37 707.175 C 1731.64 720.432 1731.87 733.694 1732.4 746.942 C 1733 761.779 1733.92 776.604 1734.72 791.799 C 1682.81 791.799 1631.42 791.799 1579.62 791.799 C 1580.03 785.659 1580.44 779.386 1580.89 773.116 C 1580.95 772.311 1581.31 771.525 1581.34 770.724 C 1581.7 761.301 1582.09 751.88 1582.35 742.454 C 1582.73 728.033 1583.02 713.609 1583.36 699.187 C 1583.69 685.597 1584.09 672.009 1584.35 658.418 C 1584.73 637.831 1585.14 617.242 1585.34 596.652 C 1585.75 552.734 1585.97 508.813 1586.39 464.895 C 1586.55 448.304 1587.35 431.715 1587.3 415.128 C 1587.15 371.374 1586.75 327.621 1586.34 283.869 C 1586.15 264.279 1585.72 244.691 1585.35 225.103 C 1585.07 210.513 1584.72 195.924 1584.35 181.335 C 1584.06 169.745 1583.71 158.155 1583.35 146.566 C 1583.05 136.643 1582.73 126.718 1582.35 116.797 C 1581.72 100.449 1581.07 84.102 1580.32 67.759 C 1580.18 64.723 1579.53 61.71 1579.04 58.143 C 1581.14 58.143 1582.6 58.143 1584.05 58.143 C 1632.55 58.143 1681.04 58.126 1729.54 58.216 C 1731.14 58.219 1732.75 59.298 1734.36 60.356 Z"/>
      <path fill="#003964" opacity="1.000000" stroke="none" d="M 1959.62 688.899 C 1948.36 674.132 1937.42 659.575 1926.34 645.122 C 1915.55 631.037 1904.61 617.061 1893.75 603.029 C 1885.28 592.089 1876.87 581.104 1868.36 570.196 C 1859.13 558.378 1849.87 546.598 1840.55 534.853 C 1833.76 526.287 1826.89 517.782 1820 509.293 C 1811.15 498.385 1802.37 487.415 1793.34 476.662 C 1781.07 462.064 1768.59 447.646 1755.88 432.77 C 1792.57 400.213 1829.92 367.067 1866.6 334.521 C 1882.73 357.152 1898.54 379.652 1914.69 401.905 C 1932.14 425.95 1949.75 449.877 1967.58 473.641 C 1979.21 489.144 1991.38 504.243 2003.26 519.563 C 2014.42 533.966 2025.42 548.498 2036.67 562.829 C 2046.25 575.021 2056.12 586.986 2065.8 599.093 C 2077.41 613.605 2088.89 628.225 2100.57 642.679 C 2108.79 652.857 2117.27 662.834 2125.62 672.905 C 2133.66 682.594 2141.64 692.333 2149.75 701.965 C 2155.98 709.37 2162.34 716.666 2168.69 723.967 C 2180.12 737.097 2191.5 750.271 2203.07 763.274 C 2208.9 769.827 2215.14 776.014 2221.12 782.433 C 2223.87 785.382 2226.45 788.491 2229.64 792.143 C 2227.21 792.143 2225.61 792.143 2224.01 792.143 C 2163.35 792.143 2102.69 792.11 2042.03 792.216 C 2037.82 792.223 2035.38 790.934 2032.82 787.363 C 2018.8 767.841 2004.37 748.609 1990.02 729.325 C 1980.03 715.896 1969.93 702.543 1959.62 688.899 Z"/>
      <path fill="#003964" opacity="1.000000" stroke="none" d="M 2105.36 58.143 C 2127.51 58.143 2149.16 58.143 2170.67 58.143 C 2173.42 62.448 2171.6 64.57 2168.01 67.193 C 2148.05 81.743 2128.16 96.38 2108.65 111.514 C 2095.86 121.436 2083.62 132.089 2071.38 142.702 C 2054.13 157.669 2037.04 172.835 2019.99 188.044 C 2008.56 198.251 1997.22 208.585 1986.01 219.034 C 1969.06 234.818 1952.26 250.754 1935.39 266.621 C 1927.18 274.341 1918.96 282.05 1910.68 289.827 C 1904.18 286.728 1904.2 286.742 1907.48 280.681 C 1917.31 262.466 1927.27 244.315 1936.91 225.995 C 1945.88 208.944 1954.92 191.912 1963.16 174.504 C 1976.06 147.231 1988.44 119.705 2000.77 92.167 C 2005.37 81.885 2009.29 71.294 2013.38 60.787 C 2014.48 57.946 2016.57 58.125 2018.88 58.127 C 2047.54 58.151 2076.2 58.143 2105.36 58.143 Z"/>
      <path fill="#003964" opacity="1.000000" stroke="none" d="M 3126.67 768.42 C 3187.45 738.305 3242.75 701.263 3289.32 651.243 C 3290.64 651.854 3292.36 652.653 3294.16 653.494 C 3294.16 699.533 3294.16 745.615 3294.16 792.143 C 3292.69 792.143 3291.4 792.143 3290.12 792.143 C 3224.48 792.143 3158.84 792.092 3093.2 792.242 C 3088.09 792.254 3086.8 790.248 3087.52 785.772 C 3100.46 780.068 3113.41 774.358 3126.67 768.42 Z"/>
      <path fill="#003964" opacity="1.000000" stroke="none" d="M 3272.36 89.143 C 3272.36 120.611 3272.36 151.58 3272.36 182.278 C 3265.48 187.439 3263.55 180.599 3260.39 177.55 C 3251.14 168.608 3242.5 158.991 3232.93 150.417 C 3223.35 141.838 3213.25 133.745 3202.79 126.266 C 3190.7 117.626 3178.44 109.021 3165.41 101.969 C 3146.99 92.007 3127.94 83.166 3108.87 74.482 C 3099.84 70.369 3090.14 67.73 3080.7 64.408 C 3080.97 62.659 3081.3 60.631 3081.66 58.366 C 3144.95 58.366 3208.35 58.366 3272.36 58.366 C 3272.36 68.46 3272.36 78.552 3272.36 89.143 Z"/>
      <path fill="#003964" opacity="1.000000" stroke="none" d="M 2291.09 717.75 C 2292.86 707.908 2294.41 698.455 2295.95 689.001 C 2297.86 677.293 2299.77 665.585 2301.77 653.337 C 2303.86 652.897 2306.3 652.381 2308.45 651.926 C 2335.92 716.075 2378.15 765.555 2442.08 794.846 C 2440.14 801.852 2440.05 801.953 2430.67 801.123 C 2424.15 800.547 2417.65 799.617 2411.13 799.188 C 2398.79 798.376 2386.44 797.877 2374.1 797.126 C 2358.83 796.196 2343.56 795.162 2328.3 794.13 C 2319.11 793.51 2309.93 792.865 2300.76 792.125 C 2293.43 791.533 2286.12 790.782 2278.61 790.084 C 2282.72 765.932 2286.79 742.036 2291.09 717.75 Z"/>
      <path fill="#003964" opacity="1.000000" stroke="none" d="M 3112.2 394.114 C 3130.7 388.719 3148.91 383.76 3166.81 377.872 C 3188.44 370.759 3209.3 361.728 3229.29 350.742 C 3235.53 347.31 3238.36 349.19 3238.36 356.32 C 3238.36 392.811 3238.36 429.303 3238.36 465.795 C 3238.36 467.452 3238.36 469.11 3238.36 470.048 C 3234.75 473.967 3231.65 473.014 3228.2 470.557 C 3198.66 449.497 3165.75 435.658 3130.97 426.087 C 3111.68 420.781 3092.29 415.816 3072.8 411.343 C 3067.56 410.141 3068.33 407.306 3068.45 403.577 C 3082.84 400.444 3097.31 397.291 3112.2 394.114 Z"/>
      <path fill="#003964" opacity="1.000000" stroke="none" d="M 2704.36 91.141 C 2700.36 112.903 2696.28 134.211 2692.42 155.557 C 2691.81 158.944 2689.95 160.887 2686.98 160.741 C 2685.39 160.662 2683.53 158.644 2682.41 157.064 C 2673.52 144.521 2665.01 131.689 2655.87 119.334 C 2651.1 112.888 2645.69 106.778 2639.84 101.295 C 2625.2 87.584 2609.7 74.92 2591.94 65.335 C 2585.55 61.885 2579.11 58.516 2572.73 55.128 C 2573.81 48.455 2573.8 48.599 2580.38 49.1 C 2587.12 49.614 2593.89 49.683 2600.63 50.167 C 2618.14 51.426 2635.65 52.827 2653.16 54.126 C 2658.74 54.539 2664.33 54.817 2669.92 55.141 C 2683.23 55.912 2696.54 56.673 2710.71 57.488 C 2708.58 68.622 2706.47 79.661 2704.36 91.141 Z"/>
    </g>
    <path d="M 443.801 138.697 L 439.722 138.697 L 441.154 131.639 L 406.663 131.639 L 403.019 149.871 L 416.771 149.871 L 417.706 145.166 L 409.582 145.166 L 410.045 142.814 L 418.176 142.814 L 419.001 138.697 L 410.889 138.697 L 411.352 136.344 L 424.263 136.344 L 421.561 149.871 L 427.167 149.871 L 429.869 136.344 L 434.578 136.344 L 431.874 149.871 L 437.524 149.871 L 438.924 142.814 L 442.999 142.814 L 441.602 149.871 L 447.226 149.871 L 450.87 131.639 L 445.232 131.639 L 443.801 138.697 Z M 467.858 133.992 L 469.735 133.992 L 470.198 131.639 L 468.331 131.639 L 467.858 133.992 Z M 472.67 133.992 L 474.546 133.992 L 475.008 131.639 L 473.143 131.639 L 472.67 133.992 Z M 490.213 133.992 L 492.089 133.992 L 492.554 131.639 L 490.687 131.639 L 490.213 133.992 Z M 499.602 137.467 C 496.329 137.467 494.031 139.784 493.297 143.827 C 493.18 144.458 493.123 145.099 493.12 145.743 C 493.12 148.505 494.785 150.221 497.474 150.221 C 499.026 150.225 500.515 149.595 501.596 148.479 L 501.612 148.461 L 500.571 147.185 L 500.553 147.164 L 500.534 147.185 C 499.813 148.085 498.724 148.61 497.572 148.611 C 496.293 148.611 494.924 147.844 494.924 145.692 C 494.929 145.068 494.993 144.447 495.122 143.837 C 495.312 142.526 495.865 141.294 496.715 140.279 C 497.409 139.514 498.395 139.077 499.426 139.077 C 500.425 139.032 501.362 139.566 501.831 140.45 L 501.846 140.475 L 503.173 139.351 L 503.19 139.333 L 503.175 139.314 C 502.401 138.104 501.039 137.399 499.602 137.467 Z M 511.574 137.202 C 510.242 137.137 508.947 137.649 508.023 138.611 L 509.428 131.639 L 507.615 131.639 L 503.971 149.871 L 505.786 149.871 L 507.297 142.214 C 507.946 138.984 510.45 138.821 510.943 138.821 C 512.201 138.692 513.265 139.737 513.16 140.997 C 513.15 141.385 513.108 141.772 513.031 142.153 L 511.492 149.871 L 513.306 149.871 L 514.898 141.985 C 514.978 141.575 515.021 141.159 515.023 140.742 C 515.162 138.768 513.55 137.114 511.574 137.202 Z M 487.119 149.843 L 487.113 149.873 L 488.903 149.873 L 491.343 137.521 L 489.585 137.521 L 487.119 149.843 Z M 454.315 139.252 L 454.31 139.285 L 460.382 139.285 L 452.378 148.382 L 452.373 148.387 L 452.072 149.873 L 460.694 149.873 L 461.033 148.109 L 454.589 148.109 L 462.616 139.012 L 462.357 139.386 L 462.921 137.521 L 454.651 137.521 L 454.315 139.252 Z M 484.141 137.37 C 482.831 137.336 481.582 137.915 480.763 138.937 L 481.04 137.548 L 481.044 137.521 L 479.28 137.521 L 476.841 149.843 L 476.835 149.873 L 478.627 149.873 L 480.117 142.315 C 480.5 140.377 481.981 138.97 483.643 138.97 C 484.324 138.953 484.968 139.277 485.361 139.832 L 485.379 139.854 L 486.831 138.546 L 486.817 138.528 C 486.151 137.75 485.165 137.323 484.141 137.37 Z M 473.337 137.521 L 475.151 137.521 L 475.146 137.55 L 472.708 149.873 L 470.944 149.873 L 470.949 149.843 L 471.183 148.56 C 470.271 149.547 468.967 150.082 467.623 150.021 C 465.675 150.109 464.085 148.476 464.224 146.529 C 464.229 146.153 464.272 145.779 464.352 145.411 L 464.373 145.301 L 465.915 137.521 L 467.705 137.521 L 467.699 137.55 L 466.184 145.136 C 466.109 145.514 466.071 145.894 466.061 146.278 C 465.963 147.526 467.024 148.556 468.268 148.423 C 468.756 148.423 471.204 148.262 471.843 145.076 L 473.337 137.521 Z" style="fill: rgb(0, 0, 15); fill-opacity: 0.941176; stroke-width: 1;"/>
  </g>
</svg>